<svg width="66" height="24" viewBox="0 0 66 24" fill="none" xmlns="http://www.w3.org/2000/svg">
<path d="M10.0993 23.9094V16.9037H9.98846C9.818 17.2673 9.57653 17.6281 9.26403 17.9861C8.95721 18.3383 8.55664 18.6309 8.06232 18.8639C7.57369 19.0969 6.9771 19.2133 6.27255 19.2133C5.27823 19.2133 4.37766 18.9577 3.57085 18.4463C2.76971 17.9292 2.13335 17.1707 1.66175 16.1707C1.19585 15.165 0.962891 13.9321 0.962891 12.4719C0.962891 10.9719 1.20437 9.7247 1.68732 8.73038C2.17028 7.73038 2.81232 6.98322 3.61346 6.4889C4.42028 5.9889 5.3038 5.7389 6.26403 5.7389C6.99698 5.7389 7.60778 5.8639 8.09641 6.1139C8.59073 6.35822 8.98846 6.66504 9.2896 7.03436C9.59641 7.39799 9.82937 7.75595 9.98846 8.10822H10.1419V5.90936H13.7214V23.9094H10.0993ZM7.42312 16.3241C8.00835 16.3241 8.50266 16.165 8.90607 15.8469C9.31516 15.523 9.62766 15.0713 9.84357 14.4917C10.0652 13.9122 10.176 13.2332 10.176 12.4548C10.176 11.6764 10.068 11.0003 9.8521 10.4264C9.63619 9.85254 9.32369 9.40936 8.9146 9.09686C8.5055 8.78436 8.00835 8.62811 7.42312 8.62811C6.82653 8.62811 6.32369 8.79004 5.9146 9.1139C5.5055 9.43777 5.19585 9.88663 4.98562 10.4605C4.77539 11.0344 4.67028 11.6991 4.67028 12.4548C4.67028 13.2162 4.77539 13.8895 4.98562 14.4747C5.20153 15.0542 5.51119 15.5088 5.9146 15.8383C6.32369 16.1622 6.82653 16.3241 7.42312 16.3241Z" fill="white"/>
<path d="M22.551 19.2559C21.21 19.2559 20.0566 18.9719 19.0907 18.4037C18.1305 17.8298 17.3919 17.0344 16.8748 16.0173C16.3635 15.0003 16.1078 13.8298 16.1078 12.5059C16.1078 11.165 16.3663 9.9889 16.8833 8.97754C17.4061 7.96049 18.1475 7.16788 19.1078 6.5997C20.068 6.02584 21.21 5.7389 22.5339 5.7389C23.676 5.7389 24.676 5.94629 25.5339 6.36106C26.3919 6.77584 27.0708 7.35822 27.5708 8.10822C28.0708 8.85822 28.3464 9.7389 28.3975 10.7503H24.9714C24.8748 10.0969 24.6191 9.57129 24.2044 9.17356C23.7953 8.77015 23.2583 8.56845 22.5936 8.56845C22.0311 8.56845 21.5396 8.72186 21.1191 9.02868C20.7044 9.32981 20.3805 9.77015 20.1476 10.3497C19.9146 10.9292 19.7981 11.6309 19.7981 12.4548C19.7981 13.29 19.9118 14.0003 20.139 14.5855C20.372 15.1707 20.6987 15.6167 21.1191 15.9236C21.5396 16.2304 22.0311 16.3838 22.5936 16.3838C23.0083 16.3838 23.3805 16.2986 23.7101 16.1281C24.0453 15.9577 24.3208 15.7105 24.5368 15.3866C24.7583 15.0571 24.9032 14.6622 24.9714 14.202H28.3975C28.3407 15.202 28.068 16.0827 27.5794 16.844C27.0964 17.5997 26.4288 18.1906 25.5765 18.6167C24.7243 19.0429 23.7157 19.2559 22.551 19.2559Z" fill="white"/>
<path d="M34.0119 15.2332L34.0204 10.8781H34.5488L38.742 5.90936H42.9096L37.2761 12.4889H36.4153L34.0119 15.2332ZM30.7221 19.0003V1.54572H34.3528V19.0003H30.7221ZM38.9039 19.0003L35.0517 13.2986L37.4721 10.7332L43.1568 19.0003H38.9039Z" fill="white"/>
<path d="M51.7306 5.90936V8.63663H43.6511V5.90936H51.7306ZM45.5005 19.0003V4.96334C45.5005 4.01447 45.6852 3.22754 46.0545 2.60254C46.4295 1.97754 46.9409 1.50879 47.5886 1.19629C48.2363 0.883789 48.9721 0.727539 49.796 0.727539C50.3528 0.727539 50.8613 0.770153 51.3216 0.855381C51.7875 0.940608 52.1341 1.01731 52.3613 1.08549L51.7136 3.81277C51.5716 3.76731 51.3954 3.7247 51.1852 3.68493C50.9806 3.64515 50.7704 3.62527 50.5545 3.62527C50.0204 3.62527 49.6483 3.75027 49.438 4.00027C49.2278 4.24459 49.1227 4.58834 49.1227 5.03152V19.0003H45.5005Z" fill="white"/>
<path d="M56.9828 5.90936L59.3862 10.4861L61.8493 5.90936H65.5737L61.7811 12.4548L65.676 19.0003H61.9686L59.3862 14.4747L56.8464 19.0003H53.0964L56.9828 12.4548L53.2328 5.90936H56.9828Z" fill="white"/>
</svg>
