<svg width="65" height="24" viewBox="0 0 65 24" fill="none" xmlns="http://www.w3.org/2000/svg">
<path d="M9.13636 23.1818V16.1761H9.02557C8.85511 16.5398 8.61364 16.9006 8.30114 17.2585C7.99432 17.6108 7.59375 17.9034 7.09943 18.1364C6.6108 18.3693 6.0142 18.4858 5.30966 18.4858C4.31534 18.4858 3.41477 18.2301 2.60795 17.7188C1.80682 17.2017 1.17045 16.4432 0.698864 15.4432C0.232955 14.4375 0 13.2045 0 11.7443C0 10.2443 0.241477 8.99716 0.724432 8.00284C1.20739 7.00284 1.84943 6.25568 2.65057 5.76136C3.45739 5.26136 4.34091 5.01136 5.30114 5.01136C6.03409 5.01136 6.64489 5.13636 7.13352 5.38636C7.62784 5.63068 8.02557 5.9375 8.3267 6.30682C8.63352 6.67046 8.86648 7.02841 9.02557 7.38068H9.17898V5.18182H12.7585V23.1818H9.13636ZM6.46023 15.5966C7.04545 15.5966 7.53977 15.4375 7.94318 15.1193C8.35227 14.7955 8.66477 14.3438 8.88068 13.7642C9.10227 13.1847 9.21307 12.5057 9.21307 11.7273C9.21307 10.9489 9.10511 10.2727 8.8892 9.69886C8.6733 9.125 8.3608 8.68182 7.9517 8.36932C7.54261 8.05682 7.04545 7.90057 6.46023 7.90057C5.86364 7.90057 5.3608 8.0625 4.9517 8.38636C4.54261 8.71023 4.23295 9.15909 4.02273 9.73296C3.8125 10.3068 3.70739 10.9716 3.70739 11.7273C3.70739 12.4886 3.8125 13.1619 4.02273 13.7472C4.23864 14.3267 4.5483 14.7813 4.9517 15.1108C5.3608 15.4347 5.86364 15.5966 6.46023 15.5966Z" fill="#0B0B0E"/>
<path d="M21.5881 18.5284C20.2472 18.5284 19.0937 18.2443 18.1278 17.6761C17.1676 17.1023 16.429 16.3068 15.9119 15.2898C15.4006 14.2727 15.1449 13.1023 15.1449 11.7784C15.1449 10.4375 15.4034 9.26136 15.9205 8.25C16.4432 7.23296 17.1847 6.44034 18.1449 5.87216C19.1051 5.2983 20.2472 5.01136 21.571 5.01136C22.7131 5.01136 23.7131 5.21875 24.571 5.63352C25.429 6.0483 26.108 6.63068 26.608 7.38068C27.108 8.13068 27.3835 9.01136 27.4347 10.0227H24.0085C23.9119 9.36932 23.6563 8.84375 23.2415 8.44602C22.8324 8.04261 22.2955 7.84091 21.6307 7.84091C21.0682 7.84091 20.5767 7.99432 20.1562 8.30114C19.7415 8.60227 19.4176 9.04261 19.1847 9.62216C18.9517 10.2017 18.8352 10.9034 18.8352 11.7273C18.8352 12.5625 18.9489 13.2727 19.1761 13.858C19.4091 14.4432 19.7358 14.8892 20.1562 15.196C20.5767 15.5028 21.0682 15.6563 21.6307 15.6563C22.0455 15.6563 22.4176 15.571 22.7472 15.4006C23.0824 15.2301 23.358 14.983 23.5739 14.6591C23.7955 14.3295 23.9403 13.9347 24.0085 13.4744H27.4347C27.3778 14.4744 27.1051 15.3551 26.6165 16.1165C26.1335 16.8722 25.4659 17.4631 24.6136 17.8892C23.7614 18.3153 22.7528 18.5284 21.5881 18.5284Z" fill="#0B0B0E"/>
<path d="M33.049 14.5057L33.0575 10.1506H33.5859L37.7791 5.18182H41.9467L36.3132 11.7614H35.4524L33.049 14.5057ZM29.7592 18.2727V0.818182H33.3899V18.2727H29.7592ZM37.9411 18.2727L34.0888 12.571L36.5092 10.0057L42.1939 18.2727H37.9411Z" fill="#0B0B0E"/>
<path d="M50.7678 5.18182V7.90909H42.6882V5.18182H50.7678ZM44.5376 18.2727V4.2358C44.5376 3.28693 44.7223 2.5 45.0916 1.875C45.4666 1.25 45.978 0.78125 46.6257 0.46875C47.2734 0.15625 48.0092 0 48.8331 0C49.3899 0 49.8984 0.042614 50.3587 0.127842C50.8246 0.213069 51.1712 0.289773 51.3984 0.357955L50.7507 3.08523C50.6087 3.03977 50.4325 2.99716 50.2223 2.95739C50.0178 2.91761 49.8075 2.89773 49.5916 2.89773C49.0575 2.89773 48.6854 3.02273 48.4751 3.27273C48.2649 3.51705 48.1598 3.8608 48.1598 4.30398V18.2727H44.5376Z" fill="#0B0B0E"/>
<path d="M56.0199 5.18182L58.4233 9.75852L60.8864 5.18182H64.6108L60.8182 11.7273L64.7131 18.2727H61.0057L58.4233 13.7472L55.8835 18.2727H52.1335L56.0199 11.7273L52.2699 5.18182H56.0199Z" fill="#0B0B0E"/>
</svg>
